<svg xmlns="http://www.w3.org/2000/svg" width="854.681" height="789.556" viewBox="0 0 854.681 789.556"><defs><style>.a{fill:#91b4f9;}.b{fill:#1f9ece;}.c{fill:#fff;}.d{fill:#fdcf22;}.e{fill:#bed0f9;}.f{fill:#147295;}.g{fill:#ffcaa1;}.h{fill:#e7605c;}.i{fill:#fa938f;}.j{fill:#ef7e7e;}.k{fill:#f6a390;}.l{fill:#373737;}.m{fill:#252526;}.n{fill:#7c99f1;}</style></defs><g transform="translate(0)"><path class="a" d="M582.637-1156.724a55.206,55.206,0,0,1-72.174-29.546,55.205,55.205,0,0,1,29.543-72.171,55.208,55.208,0,0,1,72.174,29.54A55.21,55.21,0,0,1,582.637-1156.724Z" transform="translate(-266.704 1300.059)"/><path class="b" d="M583.041-1157.09a53.773,53.773,0,0,1-70.3-28.773,53.769,53.769,0,0,1,28.774-70.294,53.766,53.766,0,0,1,70.295,28.772A53.769,53.769,0,0,1,583.041-1157.09Z" transform="translate(-267.662 1299.1)"/><path class="c" d="M609.46-1216.621a43.857,43.857,0,0,1-23.5,57.4,43.862,43.862,0,0,1-57.4-23.5,43.864,43.864,0,0,1,23.5-57.407A43.863,43.863,0,0,1,609.46-1216.621Z" transform="translate(-274.296 1292.378)"/><path class="c" d="M586.466-1160.141a41.625,41.625,0,0,1-54.412-22.278,41.616,41.616,0,0,1,22.273-54.409,41.616,41.616,0,0,1,54.412,22.272A41.623,41.623,0,0,1,586.466-1160.141Z" transform="translate(-275.769 1290.985)"/><path class="a" d="M535.9-1151.065l-6.865,2.879a2.212,2.212,0,0,0-1.189,2.9,2.218,2.218,0,0,0,2.9,1.193l6.865-2.878a2.22,2.22,0,0,0,1.189-2.9A2.221,2.221,0,0,0,535.9-1151.065Z" transform="translate(-275.308 1255.427)"/><path class="a" d="M619-1118.925a2.22,2.22,0,0,0-1.188,2.9l2.877,6.866a2.22,2.22,0,0,0,2.9,1.187,2.219,2.219,0,0,0,1.188-2.9l-2.877-6.866A2.22,2.22,0,0,0,619-1118.925Z" transform="translate(-311.326 1242.56)"/><path class="a" d="M658.01-1202.245l-6.865,2.872a2.22,2.22,0,0,0-1.188,2.9,2.222,2.222,0,0,0,2.9,1.193l6.865-2.878a2.22,2.22,0,0,0,1.189-2.9A2.22,2.22,0,0,0,658.01-1202.245Z" transform="translate(-324.193 1275.915)"/><path class="a" d="M567.823-1241.043a2.221,2.221,0,0,0-1.189,2.9l2.877,6.866a2.215,2.215,0,0,0,2.9,1.187,2.218,2.218,0,0,0,1.188-2.9l-2.877-6.86A2.222,2.222,0,0,0,567.823-1241.043Z" transform="translate(-290.838 1291.446)"/><path class="a" d="M594.453-1278.679l.612-8.707a1.3,1.3,0,0,1,1.384-1.206l9.988.7a1.3,1.3,0,0,1,1.2,1.385l-.612,8.708a1.3,1.3,0,0,1-1.386,1.205l-9.984-.7A1.3,1.3,0,0,1,594.453-1278.679Z" transform="translate(-302.041 1310.414)"/><path class="a" d="M519.287-1248.431l-6.637-5.667a1.294,1.294,0,0,0-1.829.144l-6.5,7.61a1.3,1.3,0,0,0,.144,1.829l6.637,5.667a1.3,1.3,0,0,0,1.83-.144l6.5-7.609A1.3,1.3,0,0,0,519.287-1248.431Z" transform="translate(-265.836 1296.729)"/><path class="a" d="M544.54-1277.027a1.265,1.265,0,0,1-1.653-.678l-2.428-5.793a1.265,1.265,0,0,1,.676-1.655l11.825-4.953a1.259,1.259,0,0,1,1.652.678l2.429,5.793a1.261,1.261,0,0,1-.676,1.649Z" transform="translate(-280.389 1311.058)"/><path class="a" d="M540.414-1285.33a13.8,13.8,0,0,1-13.775-8.419,13.807,13.807,0,0,1,7.395-18.068,13.806,13.806,0,0,1,18.065,7.394,13.812,13.812,0,0,1-3.652,15.736l1.317,3.142a17.106,17.106,0,0,0,5.35-20.143,17.1,17.1,0,0,0-22.344-9.145,17.094,17.094,0,0,0-9.146,22.344,17.1,17.1,0,0,0,18.109,10.308Z" transform="translate(-273.157 1321.449)"/><path class="a" d="M557.964-1263.891q2.07-.863,4.167-1.559l-3.5-8.359-6.532,2.741,3.461,8.251C556.345-1263.189,557.148-1263.549,557.964-1263.891Z" transform="translate(-285.086 1304.495)"/><path class="a" d="M599.171-1175.135A4.045,4.045,0,0,1,597-1169.84a4.047,4.047,0,0,1-5.294-2.165,4.045,4.045,0,0,1,2.167-5.295A4.046,4.046,0,0,1,599.171-1175.135Z" transform="translate(-300.819 1265.986)"/><path class="a" d="M601.363-1226.01l-2.888,33.234a1.521,1.521,0,0,1-1.648,1.385,1.521,1.521,0,0,1-1.385-1.649C595.454-1193.171,595.2-1191.7,601.363-1226.01Z" transform="translate(-302.436 1285.36)"/><path class="a" d="M626.421-1155.358l-29.812-14.974a1.524,1.524,0,0,1-.677-2.045,1.521,1.521,0,0,1,2.043-.672C598.093-1172.995,596.826-1173.768,626.421-1155.358Z" transform="translate(-302.57 1264.223)"/><path class="a" d="M598.562-1172.615a1.654,1.654,0,0,1-.885,2.165,1.652,1.652,0,0,1-2.163-.882,1.654,1.654,0,0,1,.885-2.165A1.652,1.652,0,0,1,598.562-1172.615Z" transform="translate(-302.416 1264.389)"/><path class="a" d="M388.451-1005.048l-9.73-3.668-8.538,5.936a1.429,1.429,0,0,1-2.243-1.24l.481-10.388-8.283-6.286a1.426,1.426,0,0,1,.485-2.513l10.028-2.753,3.418-9.822a1.43,1.43,0,0,1,2.543-.318l5.716,8.689,10.4.216a1.429,1.429,0,0,1,1.086,2.321l-6.5,8.12,3.007,9.955A1.429,1.429,0,0,1,388.451-1005.048Z" transform="translate(-208.014 1209.591)"/><path class="d" d="M399.874-1108.384l-5.289-14.2-13.53,4.048-5.828-13.756-13.407,2.267-6.044-9.583-4.851,3.064,8.084,12.815,12.706-2.153,6.062,14.314,13.308-3.982,4.792,12.869Z" transform="translate(-204.552 1250.772)"/><path class="e" d="M1343.7-983.374l-13.295-7.279-7.586,11.912-13.408-6.594-8.654,10.49-10.842-3.293-1.667,5.488,14.5,4.405,8.2-9.941,13.948,6.86,7.46-11.716,12.048,6.6Z" transform="translate(-579.786 1191.141)"/><path class="a" d="M792.758-1277.939l-5.685,14.044,12.713,6.147-4.989,14.086,11.424,7.376-2.015,11.148,5.649,1.02,2.687-14.914-10.825-6.986,5.194-14.656-12.5-6.045,5.151-12.731Z" transform="translate(-379.153 1306.753)"/><path class="f" d="M1154.665-1124.709l-2.939-8.749,13.553-6.29-2.722-13.319,9.373-6.368-3.221-4.743-12.539,8.509,2.585,12.629-14.1,6.536,4.426,13.169Z" transform="translate(-522.3 1260.607)"/><path class="e" d="M1289.3-1140.688c14.95,22.842-5.379,54.547-32,49.827a20.143,20.143,0,0,0-14.038,2.89l-14.722,9.073a8.492,8.492,0,0,1-11.706-2.489l-5.667-8.653a9.633,9.633,0,0,1,1.937-12.449c13.307-11.4,18.968-14.632,20.761-24.191C1239.093-1154.643,1274.347-1163.536,1289.3-1140.688Z" transform="translate(-548.337 1256.408)"/><path class="c" d="M1277.538-1103.97c1.787,1.865,4.5,3.544,6.314,1.535C1286.185-1105.013,1282.851-1106.95,1277.538-1103.97Zm-6.267-25.738c-1.08-.414-3.964.786-2.806,7.01C1271.709-1125.54,1272.7-1126.788,1271.272-1129.708Zm-5.9,9.727a27.6,27.6,0,0,1-.7-4.024c-.684-7.982,5.487-10.746,8.744-8.683,2.081,1.319,2.926,4.372,1.727,7.274-1.073,2.6-3.406,4.48-5.769,6.548a38.659,38.659,0,0,0,5.919,12.162c7.28-4.39,12.479-1.991,12.821,1.979a6.471,6.471,0,0,1-3.886,6.243c-1.475.641-5.283,1.523-9.793-3.466-12.287,8.665-28.323,21.469-28.371,21.5l-2.039-2.825c.054-.042,15.993-12.761,28.233-21.415a41.854,41.854,0,0,1-5.859-11.58c-14,12.227-26.344,21.888-26.776,22.236l-2.027-2.83C1238.493-1097.589,1250.451-1106.9,1265.371-1119.981Z" transform="translate(-559.51 1248.264)"/><path class="b" d="M1243.632-1061.772c-.126.072-.252.132-.372.21l-14.722,9.073a8.492,8.492,0,0,1-11.706-2.489l-5.667-8.653a9.633,9.633,0,0,1,1.937-12.449c5.919-5.073,10.32-8.527,13.553-11.64Z" transform="translate(-548.337 1229.999)"/><path class="g" d="M154.508-409.02s-.477-2.339-.576-3.13c-.116-.924-.248-3.724-.248-3.724s0-9.781.72-9.721,1.659,1.733,1.872,2.339.518,1.289.73,1.889a1.246,1.246,0,0,0,1.6.738c.769-.21.447-2.8.158-3.676-.9-2.717-4.78-9.5-5.159-10.236-.449-.869,2.669-17.828,3.275-23.723h0c1.28-9.625,3.078-19.454,3.218-20.467l17.135-37.875L165.8-528.29s-19.607,41.767-20.349,43.968c-.353,1.043-1.592,23.573-1.583,23.579.089,11.13.2,20.941.163,22.824,0,0-1.615,5.613-2.853,9.121s-.969,7.244-1.165,8.281a24.029,24.029,0,0,0-.3,8.144c.516,3.826,1.794-.06,1.794-.06s.329-7.28.9-7.16c.441.09.026,4.054.551,8.3.135,1.091.272,2.165.407,3.154.352,2.591,2.056,3.094,2.123.318a25.845,25.845,0,0,0-.143-3.766,21.562,21.562,0,0,1,.076-3.544,28.3,28.3,0,0,1,.1-3.646c.115.06.421-.366.6.792.216,1.385.018,4.438.5,6.447.27,1.145.689,3.562.689,3.562s1.111,3.844,1.345,3.832c1.271-.054,1.268-3.034.7-4.534a17.4,17.4,0,0,0-.382-3.682s.122-5.367.886-5.367c.628-.006,2.832,12.875,4.1,12.731C155-405.117,154.508-409.02,154.508-409.02Z" transform="translate(-119.915 1006.046)"/><path class="h" d="M177.984-508.015a81.513,81.513,0,0,1-10.884-2.633c-5.029-1.871-8.338-3.508-8.338-3.508s5.522-23.633,12.413-37.983c2.847-5.937,5.727-8.8,9.743-9.481.025-.006,8.467,5.559,8.132,18.956C188.969-539.516,177.984-508.015,177.984-508.015Z" transform="translate(-127.625 1019.389)"/><path class="g" d="M227.278-339.79,236.495-255s-4.5,17.93-3.961,23.028,10.018,71.919,10.018,71.919l-.4,3.748-.01,11.07h35.168A157.221,157.221,0,0,1,259.4-155.474a7.447,7.447,0,0,1-2.984-5.307c-2.788-20.6,2.729-89.3,2.729-89.3l4.345-89.43Z" transform="translate(-155.054 930.585)"/><path class="g" d="M162.878-310.05c-1.985.522-5.043,73.43-6.688,76.657-10.428,20.491-12.906,82.773-12.906,82.773l-3.03,8.869-3.245,10.872s10.414,2.854,15.874-.252l-.606-10.722-.554-9.8,26.309-77.592,14.4-79.151Z" transform="translate(-118.917 918.679)"/><path class="f" d="M232.941-561.068c-4.244-5.973-21.754-23.267-23.7-23.232-5.671.1-24.284.108-27.922,2.009l.022,4.078a219.224,219.224,0,0,0,7,53.977c3.194,12.287,6.219,25.408,5.846,30.122l.089.084c10.77,10.71,27.754,9.865,37.6-1.859a224.025,224.025,0,0,1,1.474-24.977C235.734-539.528,243.483-546.232,232.941-561.068Z" transform="translate(-136.656 1028.468)"/><path class="i" d="M217.468-618.12s.491,12.149-.57,16.755-2.474,4.953,6.626,6.351c3.575.552,7.022,1.373,7.022,1.373s-.934-6.764-1.075-9.619c-.233-4.7,1.052-19.22,1.052-19.22Z" transform="translate(-150.588 1043.752)"/><path class="j" d="M225.7-612.076a16.141,16.141,0,0,0,5.235,1.913c.309-5.739.891-12.317.891-12.317l-12.455,4.156A16.6,16.6,0,0,0,225.7-612.076Z" transform="translate(-151.888 1043.752)"/><path class="i" d="M216.521-672.245a15.883,15.883,0,0,0-8.07,7.562c-2.871,5.721-3.942,21.822,7.372,28.119,5.6,3.112,12.061,3.706,15.1.966,3.1-2.8,2.725-9.013,2.414-14.176C232.722-660.011,230.47-675.5,216.521-672.245Z" transform="translate(-146.751 1063.851)"/><path class="k" d="M205.031-640.949c.642,2.687-.215,5.283-1.914,5.793s-3.6-1.247-4.24-3.934.215-5.283,1.915-5.8S204.389-643.635,205.031-640.949Z" transform="translate(-143.599 1052.758)"/><path class="f" d="M152.215-29.64c-4.8,2.2-9.942.846-12.022.138l-3.335,10.92s10.487,3.106,15.947,0Z" transform="translate(-118.857 806.424)"/><path class="f" d="M251.179-20h36.56c1.352-.126,1.682-1.265,1.213-1.967-.965-1.445-5.23-2.5-10.024-4.8-8.409.912-26.055-5.061-27.382-7.07C250.78-29.822,250.428-20.173,251.179-20Z" transform="translate(-164.456 808.106)"/><path class="g" d="M318.608-508.808c.709-.984,3.079-5.8,3.079-5.8s2.458-8.252,1.948-8.144c-.3.066-1.314,1.235-2.514,3.73-.733,1.529-1.535,4.2-2.295,5.517-1.331,2.315-2.82,3.28-2.451,2.387.269-.648,1.181-1.187,1.984-2.573,1.954-3.376,3.681-8.9,2.929-8.785-.661.1-2.55,3.9-4.643,6.86-.913,1.3-3.5,2.908-5.13,3.934a6.972,6.972,0,0,1,.33-1.811c.207-.648,3.11-4.5,1.975-4.983s-8.048,7.856-8.048,7.856l-2.839,4.839-.251.186h-.01s-34.481,13.517-35.637,13.151c-2.712-.858-11.979-27.717-11.979-27.717l-19.292,3.478c-.278-.15,20.281,39.974,24.115,41.947,3.367,1.727,39.209-16.947,45.942-20.941,9.273-3.574,12.893-7.814,14.4-9.991.808-1.169,3.916-6.243,3.916-6.243s.667-7.034.161-7.094c-1.7-.21-2.171,6.423-2.171,6.423s-2.3,3.124-2.7,3.538C318.432-508.023,318.608-508.808,318.608-508.808Z" transform="translate(-158.45 1003.829)"/><path class="b" d="M214.782-564.74c-2.633,11.16,11.41,36.041,11.41,36.041s20.007-9.715,23.523-13.9c0,0-13.8-22.776-14.655-24.263-1.848-3.214-8.33-9.853-12.7-8.635C219.582-574.719,214.782-564.74,214.782-564.74Z" transform="translate(-149.92 1025.003)"/><path class="l" d="M174.882-633.171c1.5-10.242,18.475-31.1,11.918-39.818-5.307-7.052-14.558-4.942-20.453-2.914-26.734,9.194-25.2,42.8-33.636,48.058-15.3,9.529-24.711,15.46-25.814,36.928-1.308,25.456,20.315,38.457,46.317,32.233,13.981-3.352,17.687-7.928,23.293-21.126,2.528-5.955,7.625-24.521,6.23-33.588C181.488-621.52,173.678-624.926,174.882-633.171Z" transform="translate(-106.84 1065.922)"/><path class="i" d="M233.968-638.3c0,3.034-1.1,5.487-2.457,5.487s-2.457-2.453-2.457-5.487,1.1-5.487,2.457-5.487S233.968-641.331,233.968-638.3Z" transform="translate(-155.765 1052.283)"/><path class="b" d="M243.86-323.5l1.251-50.307a99.565,99.565,0,0,0-8.239-41.252l-9.507-21.816a57.535,57.535,0,0,1-11.512,2.8c-8.792,1.013-17.439.006-26.181-1.025a6.984,6.984,0,0,1-.12.888c-1.587,7.406-10.423,23.927-14.146,46.5-4.225,25.624-5.805,63.949-5.277,66.96C210.531-318.914,220.16-317.456,243.86-323.5Z" transform="translate(-132.137 969.448)"/><path class="f" d="M1124.381-667.76l30.428,30.434s57.946,22.656,64.423,36.58-5.828,13.271-19.423,11.328-52.124-25.9-52.124-25.9L1112.4-656.1Z" transform="translate(-509.389 1061.879)"/><path class="e" d="M1257.724-567.975l-7.526-2.674-14.566,6.8s-7.532,5.1-11.172,17.726,0,88.134,6.069,100.272S1257.724-567.975,1257.724-567.975Z" transform="translate(-553.669 1023.003)"/><path class="g" d="M1360.59-70.9s5.349,3.448,5.787,5.031,4.366,18.746,2.9,20.737-6.849,1.025-4.755,2.471c1.577,1.1,11.748,1.931,18.248.18,1.9-.516,1.031-16.551,1.313-19,.4-3.544,2.86-11.6,1.367-13.7-.726-1.019-4.9-2.818-8.654-4.282-3.952-1.541-8.335-5.9-8.335-5.9Z" transform="translate(-608.746 828.73)"/><path class="f" d="M1378.022-75.75s-3.16,30.44-6.854,32.688c-.984.594-6.188,1.043-6.662,3.526-.012.06-.126,2.549,1.457,2.609l19.723-.06s.21-14.962.084-20.827c0,0,2.723-14.968,1.835-16.083S1378.022-75.75,1378.022-75.75Z" transform="translate(-610.311 824.883)"/><path class="g" d="M1489.339-70.9s5.349,3.448,5.787,5.031,4.366,18.746,2.9,20.737-6.848,1.025-4.755,2.471c1.577,1.1,11.748,1.931,18.248.18,1.9-.516,1.031-16.551,1.313-19,.4-3.544,2.861-11.6,1.367-13.7-.726-1.019-4.9-2.818-8.653-4.282-3.952-1.541-8.335-5.9-8.335-5.9Z" transform="translate(-660.287 828.73)"/><path class="f" d="M1301.673-391.11s18.038,35.819,21.738,45.438L1350.9-275.93l60.621,71.319s-4.438,11.454-11.148,14.524c0,0-73.095-59.02-79.109-68.315-9.163-14.17-50.895-100.986-50.895-100.986l-7.76-16.7Z" transform="translate(-569.522 951.129)"/><path class="f" d="M1248-398.952l.288,30.548s-13.049,99.768-10.524,105.693c6.17,14.464,73.976,63.452,73.976,63.452l9.223-15.861-48.718-54.385,18.452-52.933c5.163-12.293,16.143-36.053,15.861-49.383-.234-11.424-22.883-37.918-22.883-37.918Z" transform="translate(-559.445 958.587)"/><path class="b" d="M1272.065-418.645c17.966-4.084,32.5-10.428,34-15.442.671-2.267-9.343-25.054-16.719-55.482-2.4-9.937-1.973-19.268-5.823-54.061-.822-7.382-3.88-22.854-15.3-26.842a17.208,17.208,0,0,0-6.255-1.223c-.1.018-14.542.114-21.151,3.784-1.631,2.213-7.712,14.326-9.331,47.344-.708,14.416-3.586,60.705-2.993,68.225.084,1.115.2,2.195.33,3.238C1231.407-429.122,1252.419-414.184,1272.065-418.645Z" transform="translate(-555.829 1023.424)"/><path class="i" d="M1248.26-556.451h.054c7.322-.81,25.738-24.941,25.738-24.941l-.036-.066-11.37-18s-16.737,3.046-13.463,8.144,5.109,17.325,5.109,17.325a5.241,5.241,0,0,1-.228.51C1252.913-570.981,1249.165-563.581,1248.26-556.451Z" transform="translate(-563.777 1034.537)"/><path class="j" d="M1249.516-591.316c-3.275-5.091,13.469-8.144,13.469-8.144l.947,1.5a9.848,9.848,0,0,1-.468,3.418,21.879,21.879,0,0,1-10.674,11.76A32.274,32.274,0,0,0,1249.516-591.316Z" transform="translate(-564.11 1034.537)"/><path class="g" d="M1241.767-648.145c.36-.348,13.055,20.539,10.008,29.138s-13.307,15.454-19.4,12.389c-6.74-3.394-16.929-27.345-10.782-37.5S1241.767-648.145,1241.767-648.145Z" transform="translate(-552.343 1054.762)"/><path class="m" d="M1222.188-662.894c7.472-1.607,20.821.6,28.335,5.889,9.241,6.5,9.547,18.038,5.379,25.576s-1.655,13.1-1.655,13.1-12.989-.816-15.616-9.655c-1.1-3.706.27-6.219-2.225-8.312-1.925-1.613-3.538-6.3-5.445-10.069,0,0-8.377-4.45-11.568-.786C1218.3-645.9,1212.6-660.837,1222.188-662.894Z" transform="translate(-551.15 1060.137)"/><path class="i" d="M1246.92-619.691c1.139,2.728,3.346,4.408,4.929,3.742s1.955-3.406.816-6.129-3.34-4.408-4.929-3.748S1245.786-622.42,1246.92-619.691Z" transform="translate(-562.977 1045.149)"/><path class="f" d="M1506.854-75.69s-3.244,30.4-6.938,32.652c-.984.594-6.189,1.043-6.662,3.526-.012.06-.162,2.627,1.451,2.591l19.711-.042s.222-14.962.1-20.827c0,0,2.723-14.968,1.835-16.083S1506.854-75.69,1506.854-75.69Z" transform="translate(-661.851 824.859)"/><path class="b" d="M788.09-438.182c-106.87,8.4-119.246-135.173-11.286-143.658C883.143-590.194,894.549-446.548,788.09-438.182ZM709.149-617.365c-15.665-32.76-19.967-81.658-2.9-120.439,28.778-65.46,107.96-92.175,102.131-166.367-1.469-18.687-9.787-33.717-22.032-43.387-32.226-25.448-84.08-11.98-121.091,5.791q-35.46,17.037-65.854,48.313l-10.3-131.031c44.426-31.525,98.182-48.01,151.834-52.226,109.949-8.641,194.851,32.6,203.492,142.575,7.88,100.3-59.9,144.736-105.369,194.875-25.239,27.831-30.942,49.275-28.987,74.108,1.008,12.839,5.823,28.688,13.559,38.793Z" transform="translate(-299.904 1226.036)"/><path class="g" d="M1086.276-672.4c-.2-.906.533-.191-.828-7.274a13.263,13.263,0,0,0-2.614-5.343,12.307,12.307,0,0,0-2.423-2.117,1.212,1.212,0,0,0-1.937,1.127c.245.678,1.505,3,1.751,3.676s.354,2.321-.2,2.873-9.409-9.6-9.96-10.494a35.233,35.233,0,0,1-1.518-4.055s-.767-2.4-1.709-1.79c-.618.4-1.3,2.378.479,6.277,1.547,3.406,3.694,6.129,3.448,6.327-.636.522-4.48-4.078-4.48-4.078a20.088,20.088,0,0,0-2.249-3.478c-.57-1.7-1.613-3.822-2.7-2.993-.2.153.522,3.785.522,3.785s1.343,2.4,1.913,3.586c1.007,2.087,3.3,4.617,4.09,5.973.653,1.134.018.87-.036,1a31.184,31.184,0,0,1-2.542-3.01,25.207,25.207,0,0,1-2.531-3.046,30.888,30.888,0,0,0-2.507-3.388c-2-2.375-3.052-.762-1.535,1.745.576.953,1.211,1.991,1.859,3.034,2.525,4.066,5.637,7.244,5.331,7.628-.39.5-5.739-5.631-5.739-5.631s-3.772-2.513-1.529,1.188a38.241,38.241,0,0,0,5.547,7.148c.894.774,3.256,4.414,6.735,6.627s9.115,5.552,9.115,5.552c.648.779,2.3,3.322,4.582,6.914l8.431-10.141C1090.065-667.862,1086.413-671.766,1086.276-672.4Z" transform="translate(-487.577 1073.142)"/><path class="n" d="M1094.12-639.665l11.652-10.195,40.022,39.489s61.952,5.433,62.114,5.481l2.483.773c22.476,7.76,13.223,26.1,8.893,28.94-10.087,6.608-66.108,2.651-84.051-8.485C1120.458-592.825,1094.12-639.665,1094.12-639.665Z" transform="translate(-502.071 1054.713)"/><path class="i" d="M398.646-543.306a13.442,13.442,0,0,0,1.271,3.292c3.661,7.112,12.155,17.259,12.155,17.259l6.571-15.8s-1.071-4.959-2.929-12.053C409.368-548.841,403.323-547.815,398.646-543.306Z" transform="translate(-223.657 1014.981)"/><path class="f" d="M426.074-598.155s-36.648,16.845-37.833,16.521c-.763-.21-15.033-25.7-15.185-49.671-.071-11.07,10.7-24.389,22.722-21.75,6.052,1.325,5.958,3.119,14.912,17.007S426.074-598.155,426.074-598.155Z" transform="translate(-213.412 1056.128)"/><path class="i" d="M512-57.71l-.874,15.394c-.32,1.949-1.578,6.764-1.578,8.539,0,6.662,29.635-5.655,22.993-8.605-.6-.27-3.75-2.291-3.948-4.558-.3-3.49-1.078-10.554-1.078-10.554Z" transform="translate(-268.052 817.661)"/><path class="f" d="M531.764-32.441a106.757,106.757,0,0,1-10.521,2.549c-3.563.51-8.261-3.778-10.781-2.621-2.774,1.277-2.666,12.755-2.666,12.755s37.311,3.268,47.8-.114C559.754-21.209,545.988-27.692,531.764-32.441Z" transform="translate(-267.352 807.654)"/><path class="i" d="M410.907-57.71l-.875,15.394c-.32,1.949-1.578,6.764-1.578,8.539,0,6.662,29.634-5.655,22.993-8.605-.6-.27-4.684-3.8-4.882-6.063-.3-3.5-.144-9.049-.144-9.049Z" transform="translate(-227.583 817.661)"/><path class="f" d="M430.526-32.441a106.761,106.761,0,0,1-10.521,2.549c-3.563.51-8.261-3.778-10.781-2.621-2.775,1.277-2.885,12.755-2.885,12.755s37.48,3.808,48.021-.114C458.453-21.395,444.751-27.692,430.526-32.441Z" transform="translate(-226.736 807.654)"/><path class="g" d="M427.648-604.744l26.1-39.027c.11-.342.347-1.038.709-2.1,1.314-3.874,4.05-11.928,6.432-19.945l.026-.084c.748-2.806,2.335-7.688,3.87-12.419,1.707-5.259,3.823-11.778,3.9-12.887-.065-.192-.189-.534-.352-.984a95.209,95.209,0,0,1-2.708-11.712c-.291-1.749-.582-6,1.365-6,3.061,0,1.6,4.244,3.014,6.892a70.425,70.425,0,0,0,2.122-8.84l.512-8.3c.1-.625-.525-5.2,1.622-5.2l.1,0c1.929.15,1.885,5.016,2.688,13.246.253-.947.507-2.089.7-3.139a32.046,32.046,0,0,1,.653-4.342c-.387-2.293-.162-5.91,2.126-5.569,1.147.172,1.053,5.219,1.053,5.219-.012.693-.08,6.029-.044,7.084.236-1.791,1.152-9.429,2.948-9.429,1.488,0,1.608,2.056,1.576,3.682-.018.963-.953,9.237-1.005,10.2.7-1.255,1.532-8.547,2.227-8.547,2.9,0,1.853,10.368.787,13.068a12.716,12.716,0,0,0-.33,1.445,26.669,26.669,0,0,1-2.49,7.718c-1.822,3.328-4.336,8.618-4.72,9.427-.281,1.656-1.154,7.6-2.253,15.076-.47,3.2-.985,6.7-1.523,10.338h-.028c-.1.786-.643,3.286-2.707,12.665-2.825,12.839-3.118,13.391-3.244,13.631-1.226,2.315-29.367,43.1-30.565,44.838l-.706,1.02Z" transform="translate(-235.267 1084.934)"/><path class="j" d="M504.668-680.01s-2.118-5.781-5.89-5.793a4.115,4.115,0,0,1,3.914.714C504.5-683.561,504.668-680.01,504.668-680.01Z" transform="translate(-263.742 1069.188)"/><path class="i" d="M414.888-695.514l-3.36,22.678s12.8,10.968,20.266,8.653c6.262-1.937,1.968-10.674,1.968-10.674s-3.335-12.107-2.312-18.452S414.888-695.514,414.888-695.514Z" transform="translate(-228.814 1073.521)"/><path class="j" d="M419.112-688.66A49.727,49.727,0,0,0,433.6-684.3a32.048,32.048,0,0,1-.342-9.007c.473-2.93-3.019-3.623-6.915-3.523-5.1.467-9.645,1.317-9.645,1.317l-.646,4.358A10.559,10.559,0,0,0,419.112-688.66Z" transform="translate(-230.625 1073.52)"/><path class="g" d="M390.166-746.386c-.528,0,5.061,25.335,13.71,29.7s21.549,2.087,23.969-4.738c2.678-7.548-7.088-33.393-19.253-36.676S390.166-746.386,390.166-746.386Z" transform="translate(-220.248 1098.234)"/><path class="m" d="M393.133-777.863a28.606,28.606,0,0,0-11.147,13.143c-3.243,1.643-7.167,5.2-9.05,14.765-2.316,11.768,5.918,20.839,14.646,23.57s10.2,8.893,10.2,8.893l.863-6.638s-1.942-5.774-4.862-8.665,1.383-7.1,1.762-10.541c.291-2.646-1.535-7.784-1.139-12.126,0,0,4.851-7.845,9.631-9.784C412.194-768.549,402-783.32,393.133-777.863Z" transform="translate(-213.206 1106.435)"/><path class="i" d="M408.487-714.962c1.13,2.926.668,5.831-1.033,6.489s-4-1.182-5.126-4.108-.668-5.831,1.033-6.488S407.356-717.888,408.487-714.962Z" transform="translate(-224.883 1082.473)"/><path class="i" d="M466.737-539.311l50.345-8.761s-5.728-15.388-7.775-15.388-38.068,16.785-38.068,16.785l-2.865,6.135Z" transform="translate(-250.915 1020.125)"/><path class="f" d="M418.008-463.4s-5.022,25.918-2.976,45.563,2.207,89.442,2.207,89.442l-7.81,111.672,18.531.432s21.974-111.618,21.565-108.751,7.368-78.594,7.368-78.594L430.7-465.85Z" transform="translate(-227.974 981.05)"/><path class="f" d="M431.1-469.541s-3.275,23.327.819,33.564,35.109,110.64,35.518,118.826,10.723,98.671,10.723,98.671l21.548-.642,4.662-100.608-9.762-126.442-9.477-31.969Z" transform="translate(-236.151 985.969)"/><path class="i" d="M411.528-661.709s5.314,3.718,10.27,3.292,11.964-5.313,11.964-5.313l-.973-3.526s-12.821-1.991-13.145-1.775S411.528-661.709,411.528-661.709Z" transform="translate(-228.814 1062.394)"/><path class="g" d="M505.97-577.422s19.043,19.184,27.639,15.909,12.153-14.47-8.821-30.847C506.017-607.016,505.97-577.422,505.97-577.422Z" transform="translate(-266.621 1033.326)"/><path class="b" d="M469.2-579.509c-2.829-16.425-23.332-67.535-24.969-76.951-.8-4.582-11.855-4.683-22.389-4.084-11.126.63-22.18,2.135-22.18,2.135s-9.85,1.727-14.184,6.057-5.485,16.323.745,39.075c4.918,17.96,11.014,27.819,14.031,40.9.611,4.39,1.135,8.719,1.828,13.775,1.109,19.561-.013,45.4-.013,45.4s53.622,11.874,73.679-6.141C475.75-519.337,472.1-562.676,469.2-579.509Z" transform="translate(-216.949 1059.094)"/><path class="f" d="M510.236-614.383s-21.041,18.536-22.268,18.536c-.791,0-30.026-22.95-36.774-41.809-3.73-10.422,4.095-22.086,13.033-22.044,6.2.024,8.949,1.727,21.229,12.779S510.236-614.383,510.236-614.383Z" transform="translate(-244.312 1058.652)"/><path class="b" d="M1024.656-1239.754l-45.623,30.859a10.118,10.118,0,0,1-14.055-2.71l-30.865-45.617a10.128,10.128,0,0,1,2.717-14.062l45.615-30.865a10.128,10.128,0,0,1,14.062,2.716l30.859,45.617A10.127,10.127,0,0,1,1024.656-1239.754Z" transform="translate(-437.321 1316.536)"/><path class="c" d="M1016.507-1258.467a25.812,25.812,0,0,1-6.914,35.843,25.8,25.8,0,0,1-35.841-6.914,25.812,25.812,0,0,1,6.914-35.843A25.81,25.81,0,0,1,1016.507-1258.467Z" transform="translate(-452.109 1302.896)"/><path class="f" d="M998.183-1244.45l10.589,11.544a2.078,2.078,0,0,1-.126,2.938,2.076,2.076,0,0,1-2.932-.132,2.054,2.054,0,0,1-.318-.444Z" transform="translate(-463.665 1292.742)"/><path class="f" d="M1011.016-1231.018l15.975-8.941-13.936,11.874a1.8,1.8,0,0,1-2.531-.2,1.8,1.8,0,0,1,.2-2.531A2.23,2.23,0,0,1,1011.016-1231.018Z" transform="translate(-468.435 1290.944)"/><path class="b" d="M254.568-833.279h-92.4a30.147,30.147,0,0,1-30.148-30.147v-19.137a30.147,30.147,0,0,1,30.148-30.148h92.4a30.147,30.147,0,0,1,30.147,30.148v19.137A30.147,30.147,0,0,1,254.568-833.279Z" transform="translate(-116.918 1159.939)"/><path class="e" d="M356.435-842.536l37.608,16.856-25.179-35.244Z" transform="translate(-206.759 1139.207)"/><path class="c" d="M208.011-854.675c0,3.233-2.949,5.855-6.587,5.855s-6.587-2.621-6.587-5.855,2.949-5.855,6.587-5.855S208.011-857.909,208.011-854.675Z" transform="translate(-142.067 1139.049)"/><path class="c" d="M259.117-854.675c0,3.233-2.949,5.855-6.587,5.855s-6.586-2.621-6.586-5.855,2.949-5.855,6.586-5.855S259.117-857.909,259.117-854.675Z" transform="translate(-162.526 1139.049)"/><path class="c" d="M310.222-854.675c0,3.233-2.949,5.855-6.587,5.855s-6.586-2.621-6.586-5.855,2.949-5.855,6.586-5.855S310.222-857.909,310.222-854.675Z" transform="translate(-182.985 1139.049)"/><path class="e" d="M906.753-1309.346l-6.2-13.217,5.151-2.417,3.514,7.5,8.581-5.193,2.944,4.869Z" transform="translate(-424.582 1324.979)"/><path class="d" d="M315.413-991.789l-13.747,4.9-1.911-5.358,7.793-2.779-4.345-9.042,5.127-2.465Z" transform="translate(-184.068 1197.497)"/><path class="d" d="M1275.762-1205.774q1.529,4.885,3.064,9.769c.8,2.542,1.391,6.68,3.88,8.126a1.435,1.435,0,0,0,1.949-.51c1.235-2.716-.54-6.189-1.385-8.845q-1.556-4.876-3.118-9.751C1279.264-1209.762,1274.88-1208.58,1275.762-1205.774Z" transform="translate(-574.74 1278.377)"/><path class="d" d="M1329.909-1210.832c-5.277,18-5.325,17.451-4.935,19.291a1.951,1.951,0,0,0,3.232.852c1.229-1.272.924-.9,6.015-18.956C1335.007-1212.421,1330.719-1213.6,1329.909-1210.832Z" transform="translate(-594.43 1279.915)"/><path class="d" d="M1364.548-1150.974q4.66-2.239,9.319-4.473c2.764-1.325,6.326-2.375,8.221-4.887.827-1.1-.312-2.561-1.493-2.6-3.064-.09-6.339,2.261-9.019,3.562q-4.651,2.258-9.3,4.515C1359.679-1153.594,1361.952-1149.733,1364.548-1150.974Z" transform="translate(-608.962 1260.109)"/><path class="d" d="M1349.537-1055.339a149.3,149.3,0,0,0,9.991,12.077c1.943,2.021,4.767-.947,3.028-3.034-3.346-4.012-6.782-7.928-10.015-12.048C1350.851-1060.5,1347.888-1057.467,1349.537-1055.339Z" transform="translate(-604.127 1218.534)"/><path class="d" d="M1368.683-1090.615c2.878,1.265,5.787,2.435,8.713,3.58,2.675,1.043,5.841,2.915,8.731,2.5,1.535-.216,1.715-2.267.852-3.214-1.079-1.187-1.661-1.1-8.012-3.544-2.866-1.1-5.709-2.267-8.587-3.34C1368.071-1095.5,1366.4-1091.616,1368.683-1090.615Z" transform="translate(-611.549 1232.816)"/><path class="d" d="M775.958-491.619c-106.87,8.4-119.245-135.173-11.286-143.658C871.01-643.631,882.416-499.984,775.958-491.619Z" transform="translate(-287.771 1279.473)"/></g><path class="b" d="M0,36.282,15.939,52.221a101.445,101.445,0,0,1,143.453,0l15.939-15.939A124.053,124.053,0,0,0,0,36.282Zm63.757,63.757,23.909,23.909,23.909-23.909A33.767,33.767,0,0,0,63.757,100.039ZM31.879,68.16,47.818,84.1a56.374,56.374,0,0,1,79.7,0L143.453,68.16A78.982,78.982,0,0,0,31.879,68.16Z" transform="matrix(0.839, -0.545, 0.545, 0.839, 58.17, 129.973)"/></svg>