<?xml version="1.0" encoding="UTF-8"?>
<!DOCTYPE svg PUBLIC "-//W3C//DTD SVG 1.1//EN" "http://www.w3.org/Graphics/SVG/1.1/DTD/svg11.dtd">
<!-- Creator: CorelDRAW X8 -->
<svg xmlns="http://www.w3.org/2000/svg" xml:space="preserve" width="188" height="354" version="1.1" style="shape-rendering:geometricPrecision; text-rendering:geometricPrecision; image-rendering:optimizeQuality; fill-rule:evenodd; clip-rule:evenodd"
viewBox="0 0 21000 29700"
 xmlns:xlink="http://www.w3.org/1999/xlink">
 <defs>
  <style type="text/css">
   <![CDATA[
    .str0 {stroke:#2B2A29;stroke-width:20}
    .fil1 {fill:#FEFEFE}
    .fil5 {fill:#FEFEFE}
    .fil2 {fill:#D12023}
    .fil0 {fill:#5E5D5B}
    .fil4 {fill:#D42E12}
    .fil3 {fill:#FEFEFE;fill-rule:nonzero}
   ]]>
  </style>
 </defs>
 <g id="Layer_x0020_1">
  <metadata id="CorelCorpID_0Corel-Layer"/>
  <g id="_889606352">
   <path class="fil4" d="M13360 9445c1344,217 2637,607 3890,1136 1062,448 1722,1443 1722,2596 0,1152 -660,2148 -1722,2596 -407,171 -819,330 -1238,473 -850,289 -1723,510 -2610,656 -966,159 -1945,228 -2925,228 -979,0 -1959,-69 -2926,-228 -887,-146 -1760,-367 -2611,-657 -418,-142 -830,-301 -1236,-472 -1062,-448 -1722,-1444 -1722,-2596 0,-1153 660,-2148 1722,-2596 1266,-535 2572,-927 3930,-1143 25,-4 50,-8 75,-12l33 -5c25,-3 50,-7 75,-11l31 -5c17,-2 34,-4 51,-7 64,-9 105,-50 114,-114 72,-526 428,-939 874,-1202 472,-279 1045,-401 1590,-401 545,0 1118,122 1590,401 446,263 802,676 874,1202 9,64 50,105 114,114 99,14 198,29 296,45 3,0 6,1 9,2z"/>
   <path class="fil5" d="M13316 9701c1331,215 2593,596 3833,1119 966,408 1563,1309 1563,2357 0,1048 -597,1949 -1563,2356 -401,169 -808,326 -1220,466 -839,286 -1694,503 -2569,646 -953,157 -1917,225 -2883,225 -966,0 -1930,-68 -2884,-225 -874,-143 -1730,-360 -2569,-646 -412,-140 -818,-296 -1219,-466 -966,-407 -1563,-1308 -1563,-2356 0,-1048 597,-1949 1563,-2357 1252,-528 2525,-912 3870,-1125 24,-4 49,-8 73,-12l33 -5c24,-3 49,-7 73,-11l32 -4c16,-3 33,-5 49,-7 179,-26 311,-158 336,-337 61,-445 372,-791 748,-1013 432,-255 960,-365 1458,-365 498,0 1027,110 1458,365 376,222 687,568 749,1013 24,179 156,311 335,337 97,13 194,28 291,44 2,0 4,0 6,1z"/>
   <path class="fil2" d="M7976 9940c-16,2 -32,4 -49,7l-31 4c-24,4 -48,7 -72,11l-32 5c-24,4 -48,8 -72,11 -1355,216 -2586,593 -3804,1107 -859,362 -1387,1159 -1387,2092 0,932 528,1729 1387,2092 1990,840 4015,1314 6561,1314 2547,0 4571,-475 6560,-1314 860,-363 1388,-1160 1388,-2092 0,-933 -528,-1730 -1388,-2092 -1208,-510 -2429,-886 -3773,-1102l0 0c-94,-15 -190,-30 -286,-43 -306,-44 -537,-276 -579,-582 -48,-352 -307,-627 -610,-805 -386,-228 -867,-325 -1312,-325 -445,0 -926,97 -1312,325 -302,178 -562,453 -610,805 -42,306 -273,538 -579,582z"/>
   <path class="fil3" d="M15152 14896c218,-56 435,-114 654,-178 48,-14 89,-80 89,-146 0,-359 0,-718 0,-1076 0,-359 0,-718 0,-1077 0,-253 92,-359 277,-315 186,43 280,178 280,402 0,318 0,636 0,953 0,318 0,636 0,953 0,60 39,94 87,78 219,-76 439,-153 660,-234 50,-19 91,-71 91,-117 0,-247 0,-495 0,-742 0,-248 0,-495 0,-743 0,-349 -227,-633 -701,-772l-1437 -425c-48,-14 -89,41 -89,118 0,534 0,1068 0,1602 0,534 0,1068 0,1602 0,76 40,130 89,117zm-6468 -1719c0,733 97,1286 290,1664 195,382 489,587 886,597 377,11 668,-117 868,-368 199,-253 310,-630 334,-1131 2,-52 -7,-99 -25,-137 -18,-38 -44,-58 -71,-58 -237,1 -473,1 -708,1 -55,0 -97,81 -97,181 0,128 0,256 0,385 0,378 -101,567 -301,563 -199,-4 -299,-195 -299,-571 0,-281 0,-562 0,-844 465,2 938,3 1409,2 52,0 96,-82 96,-182 0,-128 0,-257 0,-385 0,-659 -101,-1157 -301,-1489 -202,-332 -503,-500 -905,-489 -397,10 -691,215 -886,597 -193,378 -290,931 -290,1664zm877 -462c0,-221 0,-442 0,-664 0,-376 100,-565 299,-570 200,-4 301,184 301,562 0,223 0,447 0,669 0,100 -44,181 -97,181 -136,1 -272,1 -407,2 -53,0 -96,-80 -96,-180zm4476 2423c221,-42 439,-86 660,-134 48,-10 88,-84 88,-163 0,-555 0,-1110 0,-1664 0,-554 0,-1109 0,-1664 0,-79 -40,-153 -88,-163 -221,-48 -439,-92 -660,-134 -49,-9 -87,54 -88,141 0,607 0,1214 0,1820 0,607 0,1214 0,1820 0,87 39,150 88,141zm-2578 288c232,-12 462,-26 691,-43 51,-4 92,-85 92,-182 0,-262 0,-525 0,-786 0,-262 0,-525 0,-787 0,-97 42,-176 92,-177 66,0 131,-1 196,-2 193,-2 288,174 288,531 0,195 0,390 0,584 0,195 0,389 0,584 0,94 41,166 90,160 223,-27 447,-58 670,-91 49,-8 90,-88 90,-177 0,-184 0,-368 0,-552 0,-183 0,-368 0,-552 0,-284 -91,-486 -270,-610 -34,-24 -56,-84 -56,-153 0,-69 21,-128 55,-154 181,-133 271,-351 271,-659 0,-402 -73,-713 -212,-934 -141,-223 -354,-361 -638,-391 -595,-63 -683,-65 -1359,-107 -53,-3 -95,76 -95,176 0,691 0,1382 0,2073 0,691 0,1382 0,2073 0,100 42,178 95,176zm783 -2700c0,-216 0,-432 0,-649 0,-367 96,-543 288,-529 193,14 288,201 288,558 0,90 0,179 0,268 0,357 -95,534 -288,531 -65,-1 -130,-1 -196,-2 -50,-1 -92,-80 -92,-177zm-6009 2273c218,47 437,92 658,135 49,9 90,-54 90,-141 0,-261 0,-523 0,-784 0,-261 0,-523 0,-785 186,4 373,8 561,12 0,273 0,547 0,821 0,273 0,546 0,820 0,91 40,170 90,178 223,31 447,58 673,83 50,6 91,-69 91,-164 0,-666 0,-1331 0,-1997 0,-665 0,-1331 0,-1997 0,-95 -41,-170 -91,-164 -226,25 -450,52 -673,83 -50,7 -90,87 -90,178 0,274 0,548 0,821 0,273 0,547 0,821 -188,3 -375,7 -561,11 0,-261 0,-523 0,-784 0,-262 0,-524 0,-785 0,-87 -41,-150 -90,-141 -221,42 -440,87 -658,135 -49,10 -89,84 -89,163 0,553 0,1106 0,1659 0,553 0,1106 0,1659 0,79 40,153 89,163zm-2566 -1380c80,685 1393,1383 1943,950 187,-147 278,-425 278,-812 0,-532 -278,-789 -833,-770 -92,4 -185,7 -278,11 -185,7 -277,-101 -277,-325 0,-55 0,-111 0,-167 0,-224 92,-358 277,-402 168,-40 262,112 277,454 3,64 41,110 89,105 216,-21 432,-40 650,-59 27,-2 49,-19 66,-51 18,-32 26,-70 24,-110 -25,-332 -127,-567 -313,-686 -594,-382 -1906,334 -1906,1071 0,320 278,493 836,517 91,4 185,8 277,11 186,7 278,137 278,389 0,63 0,127 0,190 0,252 -92,359 -277,316 -168,-40 -262,-216 -277,-526 -3,-57 -41,-105 -87,-110 -220,-25 -439,-51 -657,-78 -26,-3 -49,4 -67,20 -18,16 -26,37 -23,62z"/>
   <path class="fil3" d="M17575 12039c24,0 47,6 70,19 23,12 40,29 53,52 13,23 19,47 19,72 0,24 -6,48 -19,70 -12,23 -30,41 -52,53 -23,13 -47,19 -71,19 -25,0 -48,-6 -71,-19 -23,-12 -40,-30 -53,-53 -12,-22 -19,-46 -19,-70 0,-25 7,-49 20,-72 12,-23 30,-40 53,-52 23,-13 46,-19 70,-19zm0 24c-20,0 -40,5 -59,15 -19,10 -33,25 -44,44 -11,19 -16,39 -16,60 0,20 5,40 16,59 10,18 25,33 44,44 19,10 38,15 59,15 20,0 40,-5 59,-15 19,-11 33,-26 44,-44 10,-19 15,-39 15,-59 0,-21 -5,-41 -15,-60 -11,-19 -26,-34 -45,-44 -19,-10 -38,-15 -58,-15zm-63 197l0 -153 53 0c18,0 31,2 39,4 8,3 14,8 19,15 5,7 7,15 7,23 0,11 -4,21 -12,29 -7,8 -18,13 -31,14 5,2 9,5 13,8 6,6 13,16 22,30l19 30 -30 0 -14 -24c-10,-19 -19,-31 -26,-35 -4,-4 -11,-6 -19,-6l-15 0 0 65 -25 0zm25 -86l30 0c14,0 24,-2 29,-6 6,-4 8,-10 8,-17 0,-5 -1,-9 -4,-12 -2,-4 -6,-7 -10,-8 -4,-2 -13,-3 -25,-3l-28 0 0 46z"/>
   <path class="fil3" d="M10477 8389c234,0 457,28 662,78 214,53 406,130 568,225 168,99 303,218 396,352 92,133 143,279 143,433 0,154 -51,301 -143,433 -93,134 -228,253 -396,352 -162,96 -354,172 -568,225 -205,50 -428,78 -662,78 -234,0 -457,-28 -662,-78 -214,-53 -406,-129 -568,-225 -167,-99 -303,-218 -396,-352 -92,-132 -143,-279 -143,-433 0,-154 51,-300 143,-433 93,-134 229,-253 396,-352 162,-95 354,-172 568,-225 205,-50 428,-78 662,-78zm-1221 1526c26,3 51,7 77,11 1,30 7,54 19,72 13,17 31,29 55,35 25,6 45,5 60,-4 14,-10 23,-23 25,-39 1,-11 0,-21 -5,-30 -4,-8 -13,-17 -26,-26 -9,-6 -29,-17 -60,-34 -41,-22 -68,-44 -83,-66 -20,-30 -28,-62 -23,-97 3,-22 11,-42 25,-59 14,-17 32,-29 55,-35 22,-5 48,-6 78,1 48,10 83,30 105,60 21,30 30,67 26,109 -27,-5 -53,-9 -79,-13 -1,-25 -6,-43 -16,-55 -9,-13 -25,-22 -47,-26 -23,-5 -41,-4 -55,4 -10,5 -15,14 -17,25 -1,11 2,21 8,30 9,11 32,27 69,46 36,19 63,36 80,52 17,15 29,33 37,55 8,22 10,47 7,76 -4,26 -13,49 -29,69 -15,20 -35,33 -59,38 -24,6 -53,4 -87,-5 -49,-12 -85,-36 -108,-69 -23,-33 -34,-75 -32,-125zm365 239c9,-75 19,-151 28,-227 9,-76 19,-152 28,-227 26,5 52,11 78,17 -3,29 -7,59 -10,89 -4,30 -8,60 -11,89 51,11 103,22 154,32 4,-29 7,-59 10,-88 4,-30 7,-60 11,-89 25,6 52,11 78,17 -8,74 -16,149 -25,223 -8,75 -17,149 -25,224 -27,-5 -53,-9 -80,-14 4,-33 8,-65 11,-98 4,-33 8,-66 11,-99 -51,-10 -103,-20 -154,-31 -4,33 -9,66 -13,99 -4,34 -7,67 -11,100 -27,-6 -54,-11 -80,-17zm399 73c8,-74 16,-148 24,-222 8,-73 16,-147 24,-221 96,20 192,39 288,57 -2,24 -5,48 -7,72 -70,-13 -140,-25 -210,-39 -4,33 -7,65 -11,97 66,12 132,23 198,33 -3,24 -5,48 -7,72 -66,-10 -132,-20 -198,-31 -2,20 -4,40 -6,60 -2,19 -4,39 -7,59 74,11 148,20 223,29 -3,24 -5,48 -7,71 -102,-11 -203,-23 -304,-37zm373 44c6,-69 12,-139 19,-208 6,-69 12,-139 18,-208 55,9 111,19 166,28 41,6 72,15 90,24 18,10 32,25 43,44 10,19 14,40 12,62 -2,29 -12,52 -31,70 -18,17 -46,26 -81,28 17,12 30,24 40,37 11,13 25,35 42,66 14,26 29,51 44,76 -33,-1 -65,-1 -98,-2 -17,-30 -35,-59 -52,-89 -18,-33 -31,-54 -38,-62 -7,-9 -14,-16 -22,-20 -9,-4 -22,-7 -40,-9 -6,0 -11,-1 -17,-1 -2,28 -4,57 -7,85 -2,29 -5,57 -7,85 -27,-1 -54,-3 -81,-6zm101 -230c20,3 39,5 59,8 38,4 63,5 72,3 10,-2 18,-7 24,-14 6,-8 9,-17 10,-29 1,-13 -2,-24 -8,-33 -6,-9 -16,-16 -29,-20 -6,-2 -25,-4 -57,-9 -21,-3 -42,-6 -62,-9 -3,34 -6,69 -9,103zm302 249c4,-62 9,-125 13,-187 4,-62 8,-125 12,-187 26,3 53,7 79,10 -4,60 -7,121 -11,182 -4,60 -7,121 -11,181 -28,1 -55,1 -82,1zm160 -3c4,-59 7,-117 10,-176 4,-58 7,-117 10,-176 26,3 51,6 77,9 25,40 49,79 75,116 25,36 51,70 77,101 1,-33 2,-67 3,-100 2,-33 3,-67 4,-101 25,3 49,5 74,8 -2,46 -3,93 -5,139 -1,47 -3,94 -5,140 -27,5 -54,10 -81,16 -26,-30 -52,-61 -77,-94 -26,-34 -50,-70 -75,-108 -2,37 -3,74 -5,110 -2,37 -4,74 -6,110 -25,2 -51,4 -76,6zm401 -76c213,-52 378,-198 412,-229 -174,10 -252,9 -398,-14 -29,83 -34,173 -14,243zm285 -1400c-298,-175 -709,-284 -1165,-284 -455,0 -867,109 -1165,284 -291,172 -472,408 -472,666 0,102 29,201 81,293 30,-157 223,-201 473,-192l0 -257 36 0c11,75 55,137 132,185 73,45 157,68 252,68 109,0 164,-29 164,-85 0,-12 -2,-21 -5,-28 -12,-20 -62,-49 -152,-84 -128,-51 -211,-87 -249,-108 -95,-50 -153,-102 -175,-158 -11,-25 -16,-51 -16,-77 0,-87 39,-156 118,-207 72,-45 163,-67 275,-67 70,0 134,9 193,27 59,18 97,28 113,28 28,0 46,-14 52,-42l42 0 0 259 -42 0c-11,-63 -47,-119 -109,-166 -62,-48 -131,-72 -209,-72 -47,0 -87,5 -120,14 -50,13 -75,33 -75,62 0,13 3,24 7,33 15,27 77,61 187,102 139,52 233,92 281,122 97,58 145,126 145,203 0,87 -38,156 -114,208 -70,49 -159,73 -269,73 -75,0 -144,-9 -207,-27 -64,-19 -104,-28 -122,-28 -33,0 -58,8 -76,25 297,19 659,102 921,157 507,106 1155,226 1580,150 103,-125 162,-264 162,-411 0,-258 -181,-494 -472,-666zm-937 706c-28,67 -69,101 -123,101 -43,0 -75,-16 -94,-48 -46,32 -86,48 -122,48 -32,0 -58,-10 -77,-31 -21,-22 -31,-53 -31,-91 0,-76 40,-125 120,-147 -18,-34 -26,-65 -26,-91 0,-38 11,-65 35,-80 17,-11 43,-16 77,-16 27,0 49,4 67,13 25,13 37,33 37,61 0,30 -17,53 -50,70 29,65 51,112 68,144 21,-27 31,-48 31,-65 0,-13 -6,-22 -18,-25 -5,-1 -15,-2 -31,-2l0 -17 132 0 0 17 -9 0c-9,0 -16,2 -22,6 -6,4 -19,21 -38,52 -9,15 -21,32 -35,52 9,15 18,31 28,46 13,19 25,29 37,29 10,0 21,-12 32,-35l12 9zm-169 -257c0,-14 -5,-31 -15,-50 -10,-21 -20,-32 -31,-32 -10,0 -15,7 -15,20 0,7 1,13 3,17l33 75c16,-2 25,-12 25,-30zm-59 293c-42,-81 -73,-144 -93,-190 -9,2 -17,7 -23,14 -6,8 -9,17 -9,28 0,17 7,42 22,75 14,29 27,51 39,66 11,14 21,21 31,21 13,0 25,-4 33,-14zm1174 -46c-28,70 -91,104 -190,104 -102,0 -168,-30 -198,-92 -14,-28 -23,-89 -27,-180 -3,-71 -21,-112 -53,-123 -13,-5 -30,-7 -52,-7l-22 0 0 357 84 0 0 32 -468 0 0 -32 84 0 0 -717 -84 0 0 -29 533 0c153,0 245,36 274,108 10,23 14,51 14,83 0,108 -68,166 -205,173l0 3c60,0 107,15 143,44 41,32 61,79 61,141 0,106 11,158 33,158 20,0 36,-14 47,-41l26 18zm-404 -450l0 -104c0,-38 -8,-64 -24,-80 -16,-16 -41,-24 -76,-24l-38 0 0 328 32 0c39,0 66,-10 82,-28 16,-19 24,-50 24,-92zm-770 -602c-466,0 -890,112 -1197,293 -313,185 -506,443 -506,729 0,286 193,544 506,729 307,181 731,293 1197,293 467,0 890,-112 1197,-293 313,-185 506,-443 506,-729 0,-286 -193,-544 -506,-729 -307,-181 -730,-293 -1197,-293z"/>
  </g>
 </g>
</svg>
